<svg width="89" height="76" viewBox="0 0 89 76" fill="none" xmlns="http://www.w3.org/2000/svg">
<path d="M75.4936 0.512337C72.9904 1.32933 71.2 3.41527 70.748 6.0053C70.5742 7.01351 70.609 7.46546 71.0957 10.2641C71.3912 11.985 71.7389 13.758 71.8953 14.21C72.3994 15.7744 74.4332 17.478 75.8238 17.478C76.5365 17.478 76.5365 17.7039 75.7717 18.4514C74.1725 20.0159 73.3902 21.8758 73.2338 24.4832L73.1295 26.2041L72.3299 26.0825C70.8523 25.8565 65.8461 25.7869 65.6375 25.9955C65.5332 26.0998 64.6814 26.1694 63.6211 26.1694C61.9871 26.1694 61.6742 26.2215 60.8746 26.6213C59.3449 27.3862 58.2498 28.9854 58.2324 30.4629C58.2324 31.0539 58.1629 31.2104 57.9369 31.2104C57.0504 31.193 48.8109 30.5498 48.7588 30.4977C48.6893 30.4108 47.1422 23.6315 47.0553 23.0752C47.0031 22.6059 54.9818 15.6875 56.3029 15.0618C57.1025 14.6967 57.5371 14.6098 58.667 14.6098C60.2141 14.6098 61.3613 15.027 62.6477 16.07C63.8123 17.0086 64.073 16.9043 66.4545 14.5577C68.61 12.4369 68.9055 12.0024 68.7316 11.2723C68.5752 10.6813 66.6457 9.13421 65.0117 8.28246C62.8562 7.15257 61.3266 6.80492 58.667 6.80492C56.1291 6.80492 54.9645 7.04827 52.9133 8.00433C51.3836 8.69964 50.7752 9.11683 49.0195 10.6117C48.0809 11.4114 47.6115 11.9502 47.542 12.2979C47.316 13.2713 48.3416 14.1057 49.2455 13.7059C49.4541 13.6016 50.2189 13.028 50.949 12.4022C52.583 11.0116 53.4695 10.4901 55.2078 9.88168C57.1025 9.23851 59.9359 9.20374 61.8828 9.79476C63.1344 10.1946 65.5332 11.4461 65.5332 11.7069C65.5332 11.7764 65.1508 12.2284 64.6641 12.6977L63.8123 13.5321L62.7867 12.9932C60.0576 11.533 56.6158 11.6373 54.1475 13.2539C53.7303 13.5321 49.2977 17.3041 44.2914 21.6498L35.2002 29.559L33.6357 29.4895C32.784 29.4721 31.967 29.3852 31.8453 29.3157C31.6889 29.2287 33.6879 27.3862 38.0162 23.6315C41.5275 20.5895 44.6217 17.8778 44.8998 17.617C45.4908 17.0434 45.5256 16.2959 44.9693 15.7744C44.0654 14.9227 44.1002 14.8879 36.191 21.7541C32.1756 25.2481 28.8207 28.0989 28.7512 28.0989C28.699 28.0989 27.2736 24.8657 25.6049 20.9198C23.6754 16.3828 22.2848 13.3061 21.798 12.576C20.6334 10.8377 18.843 9.27328 16.9656 8.35198C14.2018 6.99612 13.9758 6.96136 6.90098 6.96136H0.660547L0.330273 7.37855C0 7.77835 0 8.4389 0 34.461V61.1262L0.43457 61.5434L0.851758 61.978H6.64023C12.9328 61.978 13.0545 61.9606 13.2805 61.0219C13.4021 60.5178 13.0197 59.6487 12.6025 59.4748C12.4461 59.4227 10.1342 59.3705 7.45723 59.3705H2.60742V45.5512V31.7319H12.2549C19.1211 31.7319 22.0066 31.6797 22.3195 31.5407C22.9975 31.2278 23.1887 30.3934 23.067 28.2205C22.9801 26.6039 22.9105 26.2215 22.476 25.4393C21.9197 24.4137 20.9463 23.6315 19.8859 23.3707L19.1732 23.1795L18.0086 20.4678C16.757 17.5127 16.027 16.3655 14.6885 15.3573C12.8459 13.9666 11.3684 13.6537 6.22305 13.6537H2.60742V11.5678V9.48186H7.1791C10.2559 9.49925 12.168 9.56878 13.0719 9.72523C15.6271 10.1946 18.0781 11.759 19.5383 13.8797C19.9207 14.436 21.6068 18.1733 23.6406 22.9709C26.0916 28.7768 27.2041 31.2104 27.4996 31.419C27.8473 31.6797 30.333 31.8883 44.2393 32.8618C53.2262 33.4875 60.892 34.0438 61.2744 34.0959C63.4299 34.4262 65.5506 36.3731 66.0199 38.459L66.1937 39.2065H58.8061H51.4357L51.0012 39.641C50.5492 40.093 50.5492 40.1104 50.6187 42.5614C50.6883 45.4643 51.0012 46.3856 52.2701 47.5676C53.8346 49.0104 53.9041 49.0278 60.4574 49.0799L66.2285 49.1321V51.218V53.2866H59.9881C54.1127 53.2866 53.7303 53.3039 53.3479 53.6168C52.948 53.9297 52.9307 54.0514 52.8785 56.6588L52.8264 59.3705H50.584H48.359L48.1504 58.4666C48.0461 57.9625 47.542 56.7284 47.0553 55.7202C46.273 54.1035 45.9775 53.7037 44.5174 52.2436C42.7443 50.4705 41.0756 49.4276 38.868 48.7323C37.2861 48.2282 33.827 48.1065 32.0539 48.5063C27.5518 49.4971 23.6754 52.9041 22.1805 57.1803C21.9545 57.8582 21.7111 58.6231 21.6416 58.9012L21.5547 59.3705H19.66C18.026 59.3705 17.7131 59.4227 17.3133 59.7356C16.7223 60.2049 16.6875 61.0741 17.2611 61.5955C17.6262 61.9432 17.8521 61.978 19.5035 61.978H21.3287L21.433 63.0905C21.8676 67.7317 24.7531 71.9036 28.9424 73.9547C30.8023 74.876 32.0539 75.1889 34.2441 75.3106C40.7975 75.6756 46.499 71.4516 48.1504 65.0373C48.3416 64.2725 48.498 63.2817 48.498 62.8123V61.978H50.6709H52.8437V62.4994C52.8437 62.8297 53.0002 63.1948 53.2783 63.4555L53.6955 63.8901H61.5352H69.3748L69.792 63.4555L70.2266 63.0383V58.5883V54.1383L69.792 53.7211C69.566 53.4778 69.2531 53.2866 69.0967 53.2866C68.8707 53.2866 68.8359 52.4869 68.8359 46.2639C68.8359 42.2311 68.7664 38.8588 68.6621 38.32C68.4361 37.1205 67.6539 35.4518 66.9238 34.6348L66.3676 33.9916H69.7746H73.1816V38.1114C73.1816 42.7526 73.3555 43.9868 74.242 45.7772C74.9199 47.1678 76.3801 48.7496 77.9967 49.8274L79.2656 50.6965V54.9205C79.2656 58.9186 79.2482 59.1619 78.918 59.4575C78.6051 59.753 78.5703 59.9963 78.5703 62.6733C78.5703 65.3502 78.6051 65.5936 78.918 65.8891C79.3525 66.2715 79.3873 67.4014 78.9875 67.7317C78.8484 67.8534 77.9793 68.0446 77.0754 68.1662C74.2594 68.5313 73.5293 69.3483 73.5293 72.1469C73.5293 74.0069 73.7379 74.5805 74.5723 75.0846C75.0068 75.328 75.8586 75.3627 81.6645 75.3627H88.2873L88.635 74.9108C89 74.4414 89 74.4067 89 55.9114C89 37.4856 89 37.3639 88.6523 36.9815C88.1656 36.46 87.227 36.46 86.7402 36.9815C86.3926 37.3465 86.3926 37.5377 86.3926 48.1934V59.0229H84.1328H81.873V54.2774C81.873 50.7313 81.8209 49.4623 81.6645 49.2537C81.5428 49.1147 80.7258 48.5237 79.874 47.95C78.1184 46.768 77.2144 45.8641 76.606 44.6473C75.9107 43.2914 75.7891 42.2311 75.7891 37.9897V33.9916H77.2666C80.5172 33.9916 81.4385 33.4701 82.7596 30.8106C83.5939 29.1071 83.6461 28.968 83.4201 28.4987C83.142 27.925 82.4641 27.6295 81.8035 27.8034C81.4559 27.8903 81.1951 28.2205 80.6736 29.2635C79.6133 31.3842 79.8219 31.2799 75.6848 31.3494L72.1387 31.4016V30.0979V28.8116L74.9025 28.742C77.1971 28.7073 77.7186 28.6377 77.9967 28.3944C78.1705 28.2379 78.692 27.3166 79.1787 26.3606C80.1348 24.4137 80.1348 23.9096 79.2309 23.4055C78.4312 22.9535 77.9098 23.2838 77.0754 24.7787C76.0846 26.517 75.876 26.4823 75.8934 24.6049C75.9107 22.8145 76.3801 21.6151 77.5447 20.3461C78.7094 19.0946 78.8658 19.0424 82.0469 19.0424H84.8455L85.2801 19.5118C86.3057 20.6243 86.3057 20.5721 86.3578 26.6213C86.41 31.9231 86.4273 32.2186 86.7576 32.5836C87.227 33.0877 88.1656 33.0703 88.6523 32.5489C89.0174 32.1664 89.0174 32.0448 88.9652 26.4301L88.9131 20.6938L88.3568 19.5118C88.0092 18.7817 87.4529 17.9994 86.8967 17.4606L86.0102 16.5914L85.2105 12.0719C84.6195 8.68226 84.4631 7.51761 84.6195 7.41331C84.7238 7.34378 85.4191 7.18734 86.1492 7.06566C87.6615 6.80492 88.1309 6.47464 88.1309 5.6055C88.1309 5.01449 87.818 4.5973 87.227 4.3887C87.0531 4.33656 86.323 4.3887 85.593 4.52776C84.8803 4.66683 84.185 4.78851 84.0807 4.78851C83.959 4.78851 83.6461 4.35394 83.3853 3.83245C82.7596 2.65042 81.4559 1.41624 80.1869 0.842613C79.0049 0.286362 76.6582 0.129913 75.4936 0.512337ZM79.2656 3.34573C80.1348 3.79769 81.3516 5.01449 81.143 5.22308C81.0387 5.32738 73.3207 6.718 73.2512 6.64847C73.2338 6.63109 73.3555 6.17913 73.5293 5.65765C74.3289 3.27621 77.0232 2.19847 79.2656 3.34573ZM81.873 8.05648C81.873 8.12601 82.1859 9.9512 82.5684 12.0893C82.9508 14.2448 83.2637 16.1047 83.2637 16.209C83.2637 16.3828 82.8291 16.435 81.6471 16.435H80.0305L79.8393 15.9309C79.735 15.6528 79.4395 15.2877 79.1787 15.1139C78.7094 14.8184 78.3791 14.7836 76.8146 14.8705C75.8934 14.9227 75.059 14.5403 74.6244 13.8797C74.3637 13.4799 73.4945 9.49925 73.6336 9.3428C73.7031 9.25589 80.8475 7.95218 81.4037 7.9348C81.6645 7.9348 81.873 7.98695 81.873 8.05648ZM12.2723 16.9565C13.7672 17.7213 14.3756 18.5035 15.4881 21.1457L16.3225 23.1274L15.5229 23.336C13.2109 23.927 11.7682 26.378 12.3939 28.6377L12.5156 29.1244H7.56152H2.60742V22.6754V16.2264L6.84883 16.2959L11.0729 16.3481L12.2723 16.9565ZM45.3865 27.5774L46.0123 30.376L44.7781 30.2717C44.1002 30.2196 42.64 30.1327 41.5449 30.0631C40.4498 29.9936 39.4068 29.8893 39.2504 29.8371C39.0418 29.7676 39.6502 29.1244 41.7709 27.2645C43.318 25.9086 44.6217 24.7961 44.6738 24.7961C44.726 24.7787 45.0389 26.0477 45.3865 27.5774ZM19.8338 26.3084C20.3379 26.7604 20.39 26.8994 20.4074 27.925L20.4248 29.0375L18.2346 29.0897C16.0965 29.1244 16.0096 29.1244 15.5055 28.6899C14.8449 28.1336 14.6885 27.5252 15.0361 26.7952C15.4186 25.9955 15.8357 25.8391 17.6783 25.8391C19.208 25.8217 19.3123 25.8391 19.8338 26.3084ZM69.5312 29.9067V31.3842H68.6621H67.793V29.9067V28.4291H68.6621H69.5312V29.9067ZM65.1508 30.0284L65.0986 31.2973L62.9779 31.3494L60.8398 31.4016V30.8627C60.8398 30.1327 61.2744 29.3678 61.848 29.0549C62.1436 28.8811 62.8215 28.7942 63.7602 28.7768H65.2029L65.1508 30.0284ZM57.3633 44.1606V46.5073H56.4594C55.2947 46.5073 54.2344 46.0205 53.6955 45.2731C53.3479 44.7864 53.2609 44.4213 53.2088 43.2393L53.1566 41.8139H55.26H57.3633V44.1606ZM66.2285 44.1606V46.5073H63.0996H59.9707V44.1606V41.8139H63.0996H66.2285V44.1606ZM37.6338 51.1137C41.4406 52.0871 44.6738 55.303 45.6299 59.1098C45.9602 60.4309 45.9602 62.9688 45.6299 64.3942C44.9346 67.3145 42.6922 70.1653 40.0326 71.5037C35.6174 73.7114 30.6285 72.9465 27.2215 69.5221C25.2051 67.5057 24.1969 65.2112 24.0404 62.2735C23.7449 57.1108 27.1346 52.5043 32.2451 51.1137C33.4445 50.7834 36.3648 50.7834 37.6338 51.1137ZM67.6191 58.5883V61.2827H61.5352H55.4512V58.5883V55.894H61.5352H67.6191V58.5883ZM86.3926 62.6733V63.7162H83.7852H81.1777V62.6733V61.6303H83.7852H86.3926V62.6733ZM86.3926 69.5395V72.7553H81.2646H76.1367V71.9036C76.1367 71.4168 76.2062 70.9996 76.2758 70.9475C76.3627 70.8953 77.1102 70.7737 77.9619 70.6694C79.6828 70.4608 80.1521 70.2522 80.9518 69.4178C81.6297 68.7051 81.873 68.0967 81.873 67.0885V66.3237H84.1328H86.3926V69.5395Z" fill="#3A5040"/>
</svg>
